<svg height="200px" width="200px" version="1.1" id="Layer_1" xmlns="http://www.w3.org/2000/svg"
    xmlns:xlink="http://www.w3.org/1999/xlink" viewBox="0 0 512 512" xml:space="preserve" fill="#000000">
    <g id="SVGRepo_bgCarrier" stroke-width="0"></g>
    <g id="SVGRepo_tracerCarrier" stroke-linecap="round" stroke-linejoin="round"></g>
    <g id="SVGRepo_iconCarrier">
        <g>
            <polygon style="fill:#c27fe6;" points="255.999,450.013 0,191.905 97.783,61.992 414.217,61.992 512,191.905 ">
            </polygon>
            <polygon style="fill:#c27fe6;" points="511.999,191.909 255.999,450.013 389.005,191.909 "></polygon>
        </g>
        <g>
            <polygon style="fill:#e89ef5;" points="255.999,191.909 255.999,450.013 389.005,191.909 "></polygon>
            <polygon style="fill:#e89ef5;" points="97.783,61.987 122.994,191.909 0,191.909 "></polygon>
        </g>
        <polygon style="fill:#dfabf2;" points="122.994,191.909 255.999,191.909 255.999,61.987 "></polygon>
        <g>
            <polygon style="fill:#ad65c8;" points="414.216,61.987 511.999,191.909 389.005,191.909 "></polygon>
            <polygon style="fill:#ad65c8;" points="122.994,191.909 255.999,450.013 255.999,191.909 "></polygon>
            <polygon style="fill:#ad65c8;" points="255.999,61.987 122.994,191.909 97.783,61.987 "></polygon>
        </g>
        <polygon style="fill:#dfabf2;" points="255.999,61.987 389.005,191.909 414.216,61.987 "></polygon>
    </g>
</svg>